<svg width="24.505859" height="19.983398" viewBox="0 0 24.5059 19.9834" fill="none" xmlns="http://www.w3.org/2000/svg" xmlns:xlink="http://www.w3.org/1999/xlink">
	<desc>
			Created with Pixso.
	</desc>
	<defs/>
	<path id="Стрелка" d="M20.8789 9.9917L13.4531 2.56689C12.8594 1.97314 12.8594 1.03955 13.4531 0.445801C14.0488 -0.148438 14.9805 -0.148438 15.5762 0.445801L24.0605 8.93115C24.6543 9.5249 24.6543 10.4585 24.0605 11.0522L15.5762 19.5376C14.9805 20.1318 14.0488 20.1318 13.4531 19.5376C12.8594 18.9438 12.8594 18.0103 13.4531 17.4165L20.8789 9.9917Z" fill="#131B22" fill-opacity="1.000000" fill-rule="nonzero"/>
	<path id="Стрелка" d="M0 8.4917L23 8.4917L23 11.4917L0 11.4917L0 8.4917ZM20.8789 9.9917L13.4531 2.56689C12.8594 1.97314 12.8594 1.03955 13.4531 0.445801C14.0488 -0.148438 14.9805 -0.148438 15.5762 0.445801L24.0605 8.93115C24.6543 9.5249 24.6543 10.4585 24.0605 11.0522L15.5762 19.5376C14.9805 20.1318 14.0488 20.1318 13.4531 19.5376C12.8594 18.9438 12.8594 18.0103 13.4531 17.4165L20.8789 9.9917Z" fill="#131B22" fill-opacity="1.000000" fill-rule="evenodd"/>
</svg>
